<svg id="SvgjsSvg1006" width="1027" height="674" xmlns="http://www.w3.org/2000/svg" version="1.1" xmlns:xlink="http://www.w3.org/1999/xlink" xmlns:svgjs="http://svgjs.com/svgjs"><defs id="SvgjsDefs1007"><marker id="SvgjsMarker1051" markerWidth="16" markerHeight="12" refX="16" refY="6" viewBox="0 0 16 12" orient="auto" markerUnits="userSpaceOnUse"><path id="SvgjsPath1052" d="M0,2 L14,6 L0,11 L0,2" fill="#323232" stroke="#323232" stroke-width="2"></path></marker><marker id="SvgjsMarker1061" markerWidth="16" markerHeight="12" refX="16" refY="6" viewBox="0 0 16 12" orient="auto" markerUnits="userSpaceOnUse"><path id="SvgjsPath1062" d="M0,2 L14,6 L0,11 L0,2" fill="#323232" stroke="#323232" stroke-width="2"></path></marker><marker id="SvgjsMarker1071" markerWidth="16" markerHeight="12" refX="16" refY="6" viewBox="0 0 16 12" orient="auto" markerUnits="userSpaceOnUse"><path id="SvgjsPath1072" d="M0,2 L14,6 L0,11 L0,2" fill="#323232" stroke="#323232" stroke-width="2"></path></marker><marker id="SvgjsMarker1081" markerWidth="16" markerHeight="12" refX="16" refY="6" viewBox="0 0 16 12" orient="auto" markerUnits="userSpaceOnUse"><path id="SvgjsPath1082" d="M0,2 L14,6 L0,11 L0,2" fill="#323232" stroke="#323232" stroke-width="2"></path></marker><marker id="SvgjsMarker1089" markerWidth="16" markerHeight="12" refX="16" refY="6" viewBox="0 0 16 12" orient="auto" markerUnits="userSpaceOnUse"><path id="SvgjsPath1090" d="M0,2 L14,6 L0,11 L0,2" fill="#323232" stroke="#323232" stroke-width="2"></path></marker><marker id="SvgjsMarker1130" markerWidth="16" markerHeight="12" refX="16" refY="6" viewBox="0 0 16 12" orient="auto" markerUnits="userSpaceOnUse"><path id="SvgjsPath1131" d="M0,2 L14,6 L0,11 L0,2" fill="#323232" stroke="#323232" stroke-width="2"></path></marker><marker id="SvgjsMarker1140" markerWidth="16" markerHeight="12" refX="16" refY="6" viewBox="0 0 16 12" orient="auto" markerUnits="userSpaceOnUse"><path id="SvgjsPath1141" d="M0,2 L14,6 L0,11 L0,2" fill="#323232" stroke="#323232" stroke-width="2"></path></marker><marker id="SvgjsMarker1154" markerWidth="16" markerHeight="12" refX="16" refY="6" viewBox="0 0 16 12" orient="auto" markerUnits="userSpaceOnUse"><path id="SvgjsPath1155" d="M0,2 L14,6 L0,11 L0,2" fill="#323232" stroke="#323232" stroke-width="2"></path></marker><marker id="SvgjsMarker1187" markerWidth="16" markerHeight="12" refX="16" refY="6" viewBox="0 0 16 12" orient="auto" markerUnits="userSpaceOnUse"><path id="SvgjsPath1188" d="M0,2 L14,6 L0,11 L0,2" fill="#323232" stroke="#323232" stroke-width="2"></path></marker><marker id="SvgjsMarker1191" markerWidth="16" markerHeight="12" refX="16" refY="6" viewBox="0 0 16 12" orient="auto" markerUnits="userSpaceOnUse"><path id="SvgjsPath1192" d="M0,2 L14,6 L0,11 L0,2" fill="#323232" stroke="#323232" stroke-width="2"></path></marker><marker id="SvgjsMarker1195" markerWidth="16" markerHeight="12" refX="16" refY="6" viewBox="0 0 16 12" orient="auto" markerUnits="userSpaceOnUse"><path id="SvgjsPath1196" d="M0,2 L14,6 L0,11 L0,2" fill="#323232" stroke="#323232" stroke-width="2"></path></marker><marker id="SvgjsMarker1203" markerWidth="16" markerHeight="12" refX="16" refY="6" viewBox="0 0 16 12" orient="auto" markerUnits="userSpaceOnUse"><path id="SvgjsPath1204" d="M0,2 L14,6 L0,11 L0,2" fill="#323232" stroke="#323232" stroke-width="2"></path></marker><marker id="SvgjsMarker1223" markerWidth="16" markerHeight="12" refX="16" refY="6" viewBox="0 0 16 12" orient="auto" markerUnits="userSpaceOnUse"><path id="SvgjsPath1224" d="M0,2 L14,6 L0,11 L0,2" fill="#323232" stroke="#323232" stroke-width="2"></path></marker><marker id="SvgjsMarker1235" markerWidth="16" markerHeight="12" refX="16" refY="6" viewBox="0 0 16 12" orient="auto" markerUnits="userSpaceOnUse"><path id="SvgjsPath1236" d="M0,2 L14,6 L0,11 L0,2" fill="#323232" stroke="#323232" stroke-width="2"></path></marker><marker id="SvgjsMarker1239" markerWidth="16" markerHeight="12" refX="16" refY="6" viewBox="0 0 16 12" orient="auto" markerUnits="userSpaceOnUse"><path id="SvgjsPath1240" d="M0,2 L14,6 L0,11 L0,2" fill="#323232" stroke="#323232" stroke-width="2"></path></marker><marker id="SvgjsMarker1249" markerWidth="16" markerHeight="12" refX="16" refY="6" viewBox="0 0 16 12" orient="auto" markerUnits="userSpaceOnUse"><path id="SvgjsPath1250" d="M0,2 L14,6 L0,11 L0,2" fill="#323232" stroke="#323232" stroke-width="2"></path></marker><marker id="SvgjsMarker1257" markerWidth="16" markerHeight="12" refX="16" refY="6" viewBox="0 0 16 12" orient="auto" markerUnits="userSpaceOnUse"><path id="SvgjsPath1258" d="M0,2 L14,6 L0,11 L0,2" fill="#323232" stroke="#323232" stroke-width="2"></path></marker><marker id="SvgjsMarker1261" markerWidth="16" markerHeight="12" refX="16" refY="6" viewBox="0 0 16 12" orient="auto" markerUnits="userSpaceOnUse"><path id="SvgjsPath1262" d="M0,2 L14,6 L0,11 L0,2" fill="#323232" stroke="#323232" stroke-width="2"></path></marker></defs><g id="SvgjsG1008" transform="translate(358.37331838565024,25)"><path id="SvgjsPath1009" d="M 0 0L 247.27690582959644 0L 247.27690582959644 624L 0 624Z" stroke="#323232" stroke-width="2" fill="none"></path><path id="SvgjsPath1010" d="M 0 0L 247.27690582959644 0L 247.27690582959644 40L 0 40Z" stroke="#323232" stroke-width="2" fill-opacity="1" fill="#ffffff"></path><g id="SvgjsG1011"><text id="SvgjsText1012" font-family="微软雅黑" text-anchor="middle" font-size="16px" width="32" fill="#323232" font-weight="400" align="middle" anchor="middle" family="微软雅黑" size="16px" weight="400" font-style="" y="7.6" transform="rotate(0)"><tspan id="SvgjsTspan1013" dy="20" x="124"><tspan id="SvgjsTspan1014" style="text-decoration:;">前端</tspan></tspan></text></g></g><g id="SvgjsG1015" transform="translate(162.1535874439462,25)"><path id="SvgjsPath1016" d="M 0 0L 196.219730941704 0L 196.219730941704 624L 0 624Z" stroke="#323232" stroke-width="2" fill="none"></path><path id="SvgjsPath1017" d="M 0 0L 196.219730941704 0L 196.219730941704 40L 0 40Z" stroke="#323232" stroke-width="2" fill-opacity="1" fill="#ffffff"></path><g id="SvgjsG1018"><text id="SvgjsText1019" font-family="微软雅黑" text-anchor="middle" font-size="16px" width="64" fill="#323232" font-weight="400" align="middle" anchor="middle" family="微软雅黑" size="16px" weight="400" font-style="" y="7.6" transform="rotate(0)"><tspan id="SvgjsTspan1020" dy="20" x="98.5"><tspan id="SvgjsTspan1021" style="text-decoration:;">身份验证</tspan></tspan></text></g></g><g id="SvgjsG1022" transform="translate(605.6502242152467,25)"><path id="SvgjsPath1023" d="M 0 0L 312.3497757847534 0L 312.3497757847534 624L 0 624Z" stroke="#323232" stroke-width="2" fill="none"></path><path id="SvgjsPath1024" d="M 0 0L 312.3497757847534 0L 312.3497757847534 40L 0 40Z" stroke="#323232" stroke-width="2" fill-opacity="1" fill="#ffffff"></path><g id="SvgjsG1025"><text id="SvgjsText1026" font-family="微软雅黑" text-anchor="middle" font-size="16px" width="32" fill="#323232" font-weight="400" align="middle" anchor="middle" family="微软雅黑" size="16px" weight="400" font-style="" y="7.6" transform="rotate(0)"><tspan id="SvgjsTspan1027" dy="20" x="156.5"><tspan id="SvgjsTspan1028" style="text-decoration:;">后台</tspan></tspan></text></g></g><g id="SvgjsG1029" transform="translate(25,25)"><path id="SvgjsPath1030" d="M 0 0L 137.15358744394618 0L 137.15358744394618 624L 0 624Z" stroke="#323232" stroke-width="2" fill="none"></path><path id="SvgjsPath1031" d="M 0 0L 137.15358744394618 0L 137.15358744394618 40L 0 40Z" stroke="#323232" stroke-width="2" fill-opacity="1" fill="#ffffff"></path><g id="SvgjsG1032"><text id="SvgjsText1033" font-family="微软雅黑" text-anchor="middle" font-size="16px" width="32" fill="#323232" font-weight="400" align="middle" anchor="middle" family="微软雅黑" size="16px" weight="400" font-style="" y="7.6" transform="rotate(0)"><tspan id="SvgjsTspan1034" dy="20" x="69"><tspan id="SvgjsTspan1035" style="text-decoration:;">用户</tspan></tspan></text></g></g><g id="SvgjsG1036" transform="translate(420,293)"><path id="SvgjsPath1037" d="M 0 4Q 0 0 4 0L 134 0Q 138 0 138 4L 138 251Q 138 255 134 255L 4 255Q 0 255 0 251Z" stroke="#323232" stroke-width="2" fill-opacity="1" fill="#ffffff"></path><g id="SvgjsG1038"><text id="SvgjsText1039" font-family="微软雅黑" text-anchor="middle" font-size="13px" width="52" fill="#323232" font-weight="400" align="middle" anchor="middle" family="微软雅黑" size="13px" weight="400" font-style="" y="9.264285714285712" transform="rotate(0)"><tspan id="SvgjsTspan1040" dy="16" x="69"><tspan id="SvgjsTspan1041" style="text-decoration:;">报告列表</tspan></tspan></text></g></g><g id="SvgjsG1042" transform="translate(74,97)"><path id="SvgjsPath1043" d="M 14 7.125C 14 -2.375 28 -2.375 28 7.125C 28 16.625 14 16.625 14 7.125M 21 14.25L 21 42.75M 21 42.75L 3.5 57M 21 42.75L 38.5 57M 0 28.5L 42 28.5" stroke="#323232" stroke-width="2" fill-opacity="1" fill="#ffffff"></path><path id="SvgjsPath1044" d="M 0 0L 42 0L 42 57L 0 57Z" stroke="none" fill="none"></path><g id="SvgjsG1045"><text id="SvgjsText1046" font-family="微软雅黑" text-anchor="middle" font-size="13px" width="39" fill="#323232" font-weight="400" align="middle" anchor="middle" family="微软雅黑" size="13px" weight="400" font-style="" y="62.05" transform="rotate(0)"><tspan id="SvgjsTspan1047" dy="16" x="21"><tspan id="SvgjsTspan1048" style="text-decoration:;">操作者</tspan></tspan></text></g></g><g id="SvgjsG1049"><path id="SvgjsPath1050" d="M116 125.5L277.5 125.5L277.5 125.5L439 125.5" stroke="#323232" stroke-width="2" fill="none" marker-end="url(#SvgjsMarker1051)"></path></g><g id="SvgjsG1053" transform="translate(439,90.5)"><path id="SvgjsPath1054" d="M 0 0L 100 0L 100 70L 0 70Z" stroke="#323232" stroke-width="2" fill-opacity="1" fill="#ffffff"></path><g id="SvgjsG1055"><text id="SvgjsText1056" font-family="微软雅黑" text-anchor="middle" font-size="13px" width="52" fill="#323232" font-weight="400" align="middle" anchor="middle" family="微软雅黑" size="13px" weight="400" font-style="" y="25.05" transform="rotate(0)"><tspan id="SvgjsTspan1057" dy="16" x="50"><tspan id="SvgjsTspan1058" style="text-decoration:;">提交界面</tspan></tspan></text></g></g><g id="SvgjsG1059"><path id="SvgjsPath1060" d="M539 125.5L606 125.5L606 125.5L673 125.5" stroke="#323232" stroke-width="2" fill="none" marker-end="url(#SvgjsMarker1061)"></path></g><g id="SvgjsG1063" transform="translate(673,90.5)"><path id="SvgjsPath1064" d="M 0 0L 100 0L 100 70L 0 70Z" stroke="#323232" stroke-width="2" fill-opacity="1" fill="#ffffff"></path><g id="SvgjsG1065"><text id="SvgjsText1066" font-family="微软雅黑" text-anchor="middle" font-size="13px" width="52" fill="#323232" font-weight="400" align="middle" anchor="middle" family="微软雅黑" size="13px" weight="400" font-style="" y="25.05" transform="rotate(0)"><tspan id="SvgjsTspan1067" dy="16" x="50"><tspan id="SvgjsTspan1068" style="text-decoration:;">数据验证</tspan></tspan></text></g></g><g id="SvgjsG1069"><path id="SvgjsPath1070" d="M723 160.5L723 178.75L723 178.75L723 197" stroke="#323232" stroke-width="2" fill="none" marker-end="url(#SvgjsMarker1071)"></path></g><g id="SvgjsG1073" transform="translate(678,197)"><path id="SvgjsPath1074" d="M 0 35L 45 0L 90 35L 45 70L 0 35Z" stroke="#323232" stroke-width="2" fill-opacity="1" fill="#ffffff"></path><g id="SvgjsG1075"><text id="SvgjsText1076" font-family="微软雅黑" text-anchor="middle" font-size="13px" width="65" fill="#323232" font-weight="400" align="middle" anchor="middle" family="微软雅黑" size="13px" weight="400" font-style="" y="25.05" transform="rotate(0)"><tspan id="SvgjsTspan1077" dy="16" x="45"><tspan id="SvgjsTspan1078" style="text-decoration:;">是否通过？</tspan></tspan></text></g></g><g id="SvgjsG1079"><path id="SvgjsPath1080" d="M723 267L723 299.5L723 299.5L723 332" stroke="#323232" stroke-width="2" fill="none" marker-end="url(#SvgjsMarker1081)"></path><rect id="SvgjsRect1083" width="13" height="16" x="716.5" y="282" fill="#ffffff"></rect><text id="SvgjsText1084" font-family="微软雅黑" text-anchor="middle" font-size="13px" width="13" fill="#323232" font-weight="400" align="top" anchor="middle" family="微软雅黑" size="13px" weight="400" font-style="" y="280.05" transform="rotate(0)"><tspan id="SvgjsTspan1085" dy="16" x="723"><tspan id="SvgjsTspan1086" style="text-decoration:;">是</tspan></tspan></text></g><g id="SvgjsG1087"><path id="SvgjsPath1088" d="M678 232L608.5 232L608.5 232L539 232" stroke="#323232" stroke-width="2" fill="none" marker-end="url(#SvgjsMarker1089)"></path><rect id="SvgjsRect1091" width="13" height="16" x="647.65" y="224" fill="#ffffff"></rect><text id="SvgjsText1092" font-family="微软雅黑" text-anchor="middle" font-size="13px" width="13" fill="#323232" font-weight="400" align="top" anchor="middle" family="微软雅黑" size="13px" weight="400" font-style="" y="222.05" transform="rotate(0)"><tspan id="SvgjsTspan1093" dy="16" x="654.15"><tspan id="SvgjsTspan1094" style="text-decoration:;">否</tspan></tspan></text></g><g id="SvgjsG1095" transform="translate(439,197)"><path id="SvgjsPath1096" d="M 0 0L 100 0L 100 70L 0 70Z" stroke="#323232" stroke-width="2" fill-opacity="1" fill="#ffffff"></path><g id="SvgjsG1097"><text id="SvgjsText1098" font-family="微软雅黑" text-anchor="middle" font-size="13px" width="52" fill="#323232" font-weight="400" align="middle" anchor="middle" family="微软雅黑" size="13px" weight="400" font-style="" y="25.05" transform="rotate(0)"><tspan id="SvgjsTspan1099" dy="16" x="50"><tspan id="SvgjsTspan1100" style="text-decoration:;">提示信息</tspan></tspan></text></g></g><g id="SvgjsG1101" transform="translate(673,332)"><path id="SvgjsPath1102" d="M 0 0L 100 0L 100 70L 0 70Z" stroke="#323232" stroke-width="2" fill-opacity="1" fill="#ffffff"></path><g id="SvgjsG1103"><text id="SvgjsText1104" font-family="微软雅黑" text-anchor="middle" font-size="13px" width="65" fill="#323232" font-weight="400" align="middle" anchor="middle" family="微软雅黑" size="13px" weight="400" font-style="" y="17.05" transform="rotate(0)"><tspan id="SvgjsTspan1105" dy="16" x="50"><tspan id="SvgjsTspan1106" style="text-decoration:;">新建</tspan></tspan><tspan id="SvgjsTspan1107" dy="16" x="50"><tspan id="SvgjsTspan1108" style="text-decoration:;">待审核报告</tspan></tspan></text></g></g><g id="SvgjsG1109" transform="translate(70,401.5)"><path id="SvgjsPath1110" d="M 14 7.125C 14 -2.375 28 -2.375 28 7.125C 28 16.625 14 16.625 14 7.125M 21 14.25L 21 42.75M 21 42.75L 3.5 57M 21 42.75L 38.5 57M 0 28.5L 42 28.5" stroke="#323232" stroke-width="2" fill-opacity="1" fill="#ffffff"></path><path id="SvgjsPath1111" d="M 0 0L 42 0L 42 57L 0 57Z" stroke="none" fill="none"></path><g id="SvgjsG1112"><text id="SvgjsText1113" font-family="微软雅黑" text-anchor="middle" font-size="13px" width="39" fill="#323232" font-weight="400" align="middle" anchor="middle" family="微软雅黑" size="13px" weight="400" font-style="" y="62.05" transform="rotate(0)"><tspan id="SvgjsTspan1114" dy="16" x="21"><tspan id="SvgjsTspan1115" style="text-decoration:;">审核者</tspan></tspan></text></g></g><g id="SvgjsG1116" transform="translate(439,325)"><path id="SvgjsPath1117" d="M 0 0L 100 0L 100 70L 0 70Z" stroke="#323232" stroke-width="2" fill-opacity="1" fill="#ffffff"></path><g id="SvgjsG1118"><text id="SvgjsText1119" font-family="微软雅黑" text-anchor="middle" font-size="13px" width="65" fill="#323232" font-weight="400" align="middle" anchor="middle" family="微软雅黑" size="13px" weight="400" font-style="" y="25.05" transform="rotate(0)"><tspan id="SvgjsTspan1120" dy="16" x="50"><tspan id="SvgjsTspan1121" style="text-decoration:;">待审核报告</tspan></tspan></text></g></g><g id="SvgjsG1122" transform="translate(439,460)"><path id="SvgjsPath1123" d="M 0 0L 100 0L 100 70L 0 70Z" stroke="#323232" stroke-width="2" fill-opacity="1" fill="#ffffff"></path><g id="SvgjsG1124"><text id="SvgjsText1125" font-family="微软雅黑" text-anchor="middle" font-size="13px" width="65" fill="#323232" font-weight="400" align="middle" anchor="middle" family="微软雅黑" size="13px" weight="400" font-style="" y="25.05" transform="rotate(0)"><tspan id="SvgjsTspan1126" dy="16" x="50"><tspan id="SvgjsTspan1127" style="text-decoration:;">已审核报告</tspan></tspan></text></g></g><g id="SvgjsG1128"><path id="SvgjsPath1129" d="M112 430L158 430L158 430L204 430" stroke="#323232" stroke-width="2" fill="none" marker-end="url(#SvgjsMarker1130)"></path></g><g id="SvgjsG1132" transform="translate(204,395)"><path id="SvgjsPath1133" d="M 0 0L 100 0L 100 70L 0 70Z" stroke="#323232" stroke-width="2" fill-opacity="1" fill="#ffffff"></path><g id="SvgjsG1134"><text id="SvgjsText1135" font-family="微软雅黑" text-anchor="middle" font-size="13px" width="26" fill="#323232" font-weight="400" align="middle" anchor="middle" family="微软雅黑" size="13px" weight="400" font-style="" y="25.05" transform="rotate(0)"><tspan id="SvgjsTspan1136" dy="16" x="50"><tspan id="SvgjsTspan1137" style="text-decoration:;">登录</tspan></tspan></text></g></g><g id="SvgjsG1138"><path id="SvgjsPath1139" d="M723 402L723 431L723 431L723 460" stroke="#323232" stroke-width="2" fill="none" marker-end="url(#SvgjsMarker1140)"></path><rect id="SvgjsRect1142" width="52" height="16" x="697" y="415" fill="#ffffff"></rect><text id="SvgjsText1143" font-family="微软雅黑" text-anchor="middle" font-size="13px" width="52" fill="#323232" font-weight="400" align="top" anchor="middle" family="微软雅黑" size="13px" weight="400" font-style="" y="413.05" transform="rotate(0)"><tspan id="SvgjsTspan1144" dy="16" x="723"><tspan id="SvgjsTspan1145" style="text-decoration:;">单击生成</tspan></tspan></text></g><g id="SvgjsG1146" transform="translate(673,460)"><path id="SvgjsPath1147" d="M 0 0L 100 0L 100 70L 0 70L 0 0ZM 16.666666666666668 0L 16.666666666666668 70M 0 14L 100 14" stroke="#323232" stroke-width="2" fill-opacity="1" fill="#ffffff"></path><g id="SvgjsG1148"><text id="SvgjsText1149" font-family="微软雅黑" text-anchor="middle" font-size="13px" width="39" fill="#323232" font-weight="400" align="middle" anchor="middle" family="微软雅黑" size="13px" weight="400" font-style="" y="32.05" transform="rotate(0)"><tspan id="SvgjsTspan1150" dy="16" x="58.66666666666667"><tspan id="SvgjsTspan1151" style="text-decoration:;">数据库</tspan></tspan></text></g></g><g id="SvgjsG1152"><path id="SvgjsPath1153" d="M116 125.5L439 344" stroke="#323232" stroke-width="2" fill="none" marker-end="url(#SvgjsMarker1154)"></path><rect id="SvgjsRect1156" width="26" height="48" x="312.95" y="243.52499999999998" fill="#ffffff"></rect><text id="SvgjsText1157" font-family="微软雅黑" text-anchor="middle" font-size="13px" width="26" fill="#323232" font-weight="400" align="top" anchor="middle" family="微软雅黑" size="13px" weight="400" font-style="" y="241.575" transform="rotate(0)"><tspan id="SvgjsTspan1158" dy="16" x="325.95"><tspan id="SvgjsTspan1159" style="text-decoration:;">编辑</tspan></tspan><tspan id="SvgjsTspan1160" dy="16" x="325.95"><tspan id="SvgjsTspan1161" style="text-decoration:;">预览</tspan></tspan><tspan id="SvgjsTspan1162" dy="16" x="325.95"><tspan id="SvgjsTspan1163" style="text-decoration:;">删除</tspan></tspan></text></g><g id="SvgjsG1164" transform="translate(779,81)"><path id="SvgjsPath1165" d="M 20 0L 0 0L 0 89L 20 89" stroke="#323232" stroke-width="2" fill="none"></path><path id="SvgjsPath1166" d="M 0 0L 223 0L 223 89L 0 89Z" stroke="none" fill="none"></path><g id="SvgjsG1167"><text id="SvgjsText1168" font-family="微软雅黑" text-anchor="start" font-size="13px" width="125" fill="#323232" font-weight="400" align="middle" anchor="start" family="微软雅黑" size="13px" weight="400" font-style="" y="2.55" transform="rotate(0)"><tspan id="SvgjsTspan1169" dy="16" x="10"><tspan id="SvgjsTspan1170" style="text-decoration:;">数据要求：</tspan></tspan><tspan id="SvgjsTspan1171" dy="16" x="10"><tspan id="SvgjsTspan1172" style="text-decoration:;">1.数据量≥20</tspan></tspan><tspan id="SvgjsTspan1173" dy="16" x="10"><tspan id="SvgjsTspan1174" style="text-decoration:;">2.无离群值</tspan></tspan><tspan id="SvgjsTspan1175" dy="16" x="10"><tspan id="SvgjsTspan1176" style="text-decoration:;">3.P值&gt;0.10</tspan></tspan><tspan id="SvgjsTspan1177" dy="16" x="10"><tspan id="SvgjsTspan1178" style="text-decoration:;">4.最大SE/Xc&lt;1/2ALE</tspan></tspan></text></g></g><g id="SvgjsG1179" transform="translate(779,214)"><path id="SvgjsPath1180" d="M 0 0L 100 0L 100 70L 0 70Z" stroke="#323232" stroke-width="2" fill-opacity="1" fill="#ffffff"></path><g id="SvgjsG1181"><text id="SvgjsText1182" font-family="微软雅黑" text-anchor="middle" font-size="13px" width="61" fill="#323232" font-weight="400" align="middle" anchor="middle" family="微软雅黑" size="13px" weight="400" font-style="" y="25.05" transform="rotate(0)"><tspan id="SvgjsTspan1183" dy="16" x="50"><tspan id="SvgjsTspan1184" style="text-decoration:;">R语言模块</tspan></tspan></text></g></g><g id="SvgjsG1185"><path id="SvgjsPath1186" d="M829 214L723 160.5" stroke="#323232" stroke-width="2" fill="none" marker-end="url(#SvgjsMarker1187)"></path></g><g id="SvgjsG1189"><path id="SvgjsPath1190" d="M829 284L773 367" stroke="#323232" stroke-width="2" fill="none" marker-end="url(#SvgjsMarker1191)"></path></g><g id="SvgjsG1193"><path id="SvgjsPath1194" d="M489 395L489 427.5L489 427.5L489 460" stroke="#323232" stroke-width="2" fill="none" marker-end="url(#SvgjsMarker1195)"></path><rect id="SvgjsRect1197" width="39" height="16" x="469.5" y="411" fill="#ffffff"></rect><text id="SvgjsText1198" font-family="微软雅黑" text-anchor="middle" font-size="13px" width="39" fill="#323232" font-weight="400" align="top" anchor="middle" family="微软雅黑" size="13px" weight="400" font-style="" y="409.05" transform="rotate(0)"><tspan id="SvgjsTspan1199" dy="16" x="489"><tspan id="SvgjsTspan1200" style="text-decoration:;">审核后</tspan></tspan></text></g><g id="SvgjsG1201"><path id="SvgjsPath1202" d="M304 430L335.5 430L335.5 360L439 360" stroke="#323232" stroke-width="2" fill="none" marker-end="url(#SvgjsMarker1203)"></path><rect id="SvgjsRect1205" width="26" height="64" x="374" y="328" fill="#ffffff"></rect><text id="SvgjsText1206" font-family="微软雅黑" text-anchor="middle" font-size="13px" width="26" fill="#323232" font-weight="400" align="top" anchor="middle" family="微软雅黑" size="13px" weight="400" font-style="" y="326.05" transform="rotate(0)"><tspan id="SvgjsTspan1207" dy="16" x="387"><tspan id="SvgjsTspan1208" style="text-decoration:;">编辑</tspan></tspan><tspan id="SvgjsTspan1209" dy="16" x="387"><tspan id="SvgjsTspan1210" style="text-decoration:;">审核</tspan></tspan><tspan id="SvgjsTspan1211" dy="16" x="387"><tspan id="SvgjsTspan1212" style="text-decoration:;">预览</tspan></tspan><tspan id="SvgjsTspan1213" dy="16" x="387"><tspan id="SvgjsTspan1214" style="text-decoration:;">删除</tspan></tspan></text></g><g id="SvgjsG1215" transform="translate(439,564)"><path id="SvgjsPath1216" d="M 0 0L 100 0L 100 70L 0 70Z" stroke="#323232" stroke-width="2" fill-opacity="1" fill="#ffffff"></path><g id="SvgjsG1217"><text id="SvgjsText1218" font-family="微软雅黑" text-anchor="middle" font-size="13px" width="52" fill="#323232" font-weight="400" align="middle" anchor="middle" family="微软雅黑" size="13px" weight="400" font-style="" y="25.05" transform="rotate(0)"><tspan id="SvgjsTspan1219" dy="16" x="50"><tspan id="SvgjsTspan1220" style="text-decoration:;">项目参数</tspan></tspan></text></g></g><g id="SvgjsG1221"><path id="SvgjsPath1222" d="M254 465L254 599L439 599" stroke="#323232" stroke-width="2" fill="none" marker-end="url(#SvgjsMarker1223)"></path><rect id="SvgjsRect1225" width="26" height="48" x="376.75" y="575" fill="#ffffff"></rect><text id="SvgjsText1226" font-family="微软雅黑" text-anchor="middle" font-size="13px" width="26" fill="#323232" font-weight="400" align="top" anchor="middle" family="微软雅黑" size="13px" weight="400" font-style="" y="573.05" transform="rotate(0)"><tspan id="SvgjsTspan1227" dy="16" x="389.75"><tspan id="SvgjsTspan1228" style="text-decoration:;">新建</tspan></tspan><tspan id="SvgjsTspan1229" dy="16" x="389.75"><tspan id="SvgjsTspan1230" style="text-decoration:;">编辑</tspan></tspan><tspan id="SvgjsTspan1231" dy="16" x="389.75"><tspan id="SvgjsTspan1232" style="text-decoration:;">删除</tspan></tspan></text></g><g id="SvgjsG1233"><path id="SvgjsPath1234" d="M539 599L837 599L837 367L773 367" stroke="#323232" stroke-width="2" fill="none" marker-end="url(#SvgjsMarker1235)"></path></g><g id="SvgjsG1237"><path id="SvgjsPath1238" d="M304 430L335.5 430L335.5 495L439 495" stroke="#323232" stroke-width="2" fill="none" marker-end="url(#SvgjsMarker1239)"></path><rect id="SvgjsRect1241" width="26" height="32" x="374" y="479" fill="#ffffff"></rect><text id="SvgjsText1242" font-family="微软雅黑" text-anchor="middle" font-size="13px" width="26" fill="#323232" font-weight="400" align="top" anchor="middle" family="微软雅黑" size="13px" weight="400" font-style="" y="477.05" transform="rotate(0)"><tspan id="SvgjsTspan1243" dy="16" x="387"><tspan id="SvgjsTspan1244" style="text-decoration:;">预览</tspan></tspan><tspan id="SvgjsTspan1245" dy="16" x="387"><tspan id="SvgjsTspan1246" style="text-decoration:;">删除</tspan></tspan></text></g><g id="SvgjsG1247"><path id="SvgjsPath1248" d="M116 125.5L439 495" stroke="#323232" stroke-width="2" fill="none" marker-end="url(#SvgjsMarker1249)"></path><rect id="SvgjsRect1251" width="26" height="16" x="264.5" y="302.25" fill="#ffffff"></rect><text id="SvgjsText1252" font-family="微软雅黑" text-anchor="middle" font-size="13px" width="26" fill="#323232" font-weight="400" align="top" anchor="middle" family="微软雅黑" size="13px" weight="400" font-style="" y="300.3" transform="rotate(0)"><tspan id="SvgjsTspan1253" dy="16" x="277.5"><tspan id="SvgjsTspan1254" style="text-decoration:;">预览</tspan></tspan></text></g><g id="SvgjsG1255"><path id="SvgjsPath1256" d="M562 510L613.5 510L613.5 510L665 510" stroke="#323232" stroke-width="2" fill="none" marker-end="url(#SvgjsMarker1257)"></path></g><g id="SvgjsG1259"><path id="SvgjsPath1260" d="M665 489L615 489L615 489L565 489" stroke="#323232" stroke-width="2" fill="none" marker-end="url(#SvgjsMarker1261)"></path></g></svg>