<svg id="SvgjsSvg2097" width="1027" height="581" xmlns="http://www.w3.org/2000/svg" version="1.1" xmlns:xlink="http://www.w3.org/1999/xlink" xmlns:svgjs="http://svgjs.com/svgjs"><defs id="SvgjsDefs2098"><marker id="SvgjsMarker2142" markerWidth="16" markerHeight="12" refX="16" refY="6" viewBox="0 0 16 12" orient="auto" markerUnits="userSpaceOnUse"><path id="SvgjsPath2143" d="M0,2 L14,6 L0,11 L0,2" fill="#323232" stroke="#323232" stroke-width="2"></path></marker><marker id="SvgjsMarker2152" markerWidth="16" markerHeight="12" refX="16" refY="6" viewBox="0 0 16 12" orient="auto" markerUnits="userSpaceOnUse"><path id="SvgjsPath2153" d="M0,2 L14,6 L0,11 L0,2" fill="#323232" stroke="#323232" stroke-width="2"></path></marker><marker id="SvgjsMarker2162" markerWidth="16" markerHeight="12" refX="16" refY="6" viewBox="0 0 16 12" orient="auto" markerUnits="userSpaceOnUse"><path id="SvgjsPath2163" d="M0,2 L14,6 L0,11 L0,2" fill="#323232" stroke="#323232" stroke-width="2"></path></marker><marker id="SvgjsMarker2172" markerWidth="16" markerHeight="12" refX="16" refY="6" viewBox="0 0 16 12" orient="auto" markerUnits="userSpaceOnUse"><path id="SvgjsPath2173" d="M0,2 L14,6 L0,11 L0,2" fill="#323232" stroke="#323232" stroke-width="2"></path></marker><marker id="SvgjsMarker2180" markerWidth="16" markerHeight="12" refX="16" refY="6" viewBox="0 0 16 12" orient="auto" markerUnits="userSpaceOnUse"><path id="SvgjsPath2181" d="M0,2 L14,6 L0,11 L0,2" fill="#323232" stroke="#323232" stroke-width="2"></path></marker><marker id="SvgjsMarker2221" markerWidth="16" markerHeight="12" refX="16" refY="6" viewBox="0 0 16 12" orient="auto" markerUnits="userSpaceOnUse"><path id="SvgjsPath2222" d="M0,2 L14,6 L0,11 L0,2" fill="#323232" stroke="#323232" stroke-width="2"></path></marker><marker id="SvgjsMarker2231" markerWidth="16" markerHeight="12" refX="16" refY="6" viewBox="0 0 16 12" orient="auto" markerUnits="userSpaceOnUse"><path id="SvgjsPath2232" d="M0,2 L14,6 L0,11 L0,2" fill="#323232" stroke="#323232" stroke-width="2"></path></marker><marker id="SvgjsMarker2245" markerWidth="16" markerHeight="12" refX="16" refY="6" viewBox="0 0 16 12" orient="auto" markerUnits="userSpaceOnUse"><path id="SvgjsPath2246" d="M0,2 L14,6 L0,11 L0,2" fill="#323232" stroke="#323232" stroke-width="2"></path></marker><marker id="SvgjsMarker2278" markerWidth="16" markerHeight="12" refX="16" refY="6" viewBox="0 0 16 12" orient="auto" markerUnits="userSpaceOnUse"><path id="SvgjsPath2279" d="M0,2 L14,6 L0,11 L0,2" fill="#323232" stroke="#323232" stroke-width="2"></path></marker><marker id="SvgjsMarker2282" markerWidth="16" markerHeight="12" refX="16" refY="6" viewBox="0 0 16 12" orient="auto" markerUnits="userSpaceOnUse"><path id="SvgjsPath2283" d="M0,2 L14,6 L0,11 L0,2" fill="#323232" stroke="#323232" stroke-width="2"></path></marker><marker id="SvgjsMarker2286" markerWidth="16" markerHeight="12" refX="16" refY="6" viewBox="0 0 16 12" orient="auto" markerUnits="userSpaceOnUse"><path id="SvgjsPath2287" d="M0,2 L14,6 L0,11 L0,2" fill="#323232" stroke="#323232" stroke-width="2"></path></marker><marker id="SvgjsMarker2290" markerWidth="16" markerHeight="12" refX="16" refY="6" viewBox="0 0 16 12" orient="auto" markerUnits="userSpaceOnUse"><path id="SvgjsPath2291" d="M0,2 L14,6 L0,11 L0,2" fill="#323232" stroke="#323232" stroke-width="2"></path></marker><marker id="SvgjsMarker2298" markerWidth="16" markerHeight="12" refX="16" refY="6" viewBox="0 0 16 12" orient="auto" markerUnits="userSpaceOnUse"><path id="SvgjsPath2299" d="M0,2 L14,6 L0,11 L0,2" fill="#323232" stroke="#323232" stroke-width="2"></path></marker><marker id="SvgjsMarker2312" markerWidth="16" markerHeight="12" refX="16" refY="6" viewBox="0 0 16 12" orient="auto" markerUnits="userSpaceOnUse"><path id="SvgjsPath2313" d="M0,2 L14,6 L0,11 L0,2" fill="#323232" stroke="#323232" stroke-width="2"></path></marker></defs><g id="SvgjsG2099" transform="translate(358,25)"><path id="SvgjsPath2100" d="M 0 0L 247 0L 247 531L 0 531Z" stroke="#323232" stroke-width="2" fill="none"></path><path id="SvgjsPath2101" d="M 0 0L 247 0L 247 40L 0 40Z" stroke="#323232" stroke-width="2" fill-opacity="1" fill="#ffffff"></path><g id="SvgjsG2102"><text id="SvgjsText2103" font-family="微软雅黑" text-anchor="middle" font-size="16px" width="32" fill="#323232" font-weight="400" align="middle" anchor="middle" family="微软雅黑" size="16px" weight="400" font-style="" y="7.6" transform="rotate(0)"><tspan id="SvgjsTspan2104" dy="20" x="123.5"><tspan id="SvgjsTspan2105" style="text-decoration:;">前端</tspan></tspan></text></g></g><g id="SvgjsG2106" transform="translate(162,25)"><path id="SvgjsPath2107" d="M 0 0L 196 0L 196 531L 0 531Z" stroke="#323232" stroke-width="2" fill="none"></path><path id="SvgjsPath2108" d="M 0 0L 196 0L 196 40L 0 40Z" stroke="#323232" stroke-width="2" fill-opacity="1" fill="#ffffff"></path><g id="SvgjsG2109"><text id="SvgjsText2110" font-family="微软雅黑" text-anchor="middle" font-size="16px" width="64" fill="#323232" font-weight="400" align="middle" anchor="middle" family="微软雅黑" size="16px" weight="400" font-style="" y="7.6" transform="rotate(0)"><tspan id="SvgjsTspan2111" dy="20" x="98"><tspan id="SvgjsTspan2112" style="text-decoration:;">身份验证</tspan></tspan></text></g></g><g id="SvgjsG2113" transform="translate(605,25)"><path id="SvgjsPath2114" d="M 0 0L 312 0L 312 531L 0 531Z" stroke="#323232" stroke-width="2" fill="none"></path><path id="SvgjsPath2115" d="M 0 0L 312 0L 312 40L 0 40Z" stroke="#323232" stroke-width="2" fill-opacity="1" fill="#ffffff"></path><g id="SvgjsG2116"><text id="SvgjsText2117" font-family="微软雅黑" text-anchor="middle" font-size="16px" width="32" fill="#323232" font-weight="400" align="middle" anchor="middle" family="微软雅黑" size="16px" weight="400" font-style="" y="7.6" transform="rotate(0)"><tspan id="SvgjsTspan2118" dy="20" x="156"><tspan id="SvgjsTspan2119" style="text-decoration:;">后台</tspan></tspan></text></g></g><g id="SvgjsG2120" transform="translate(420,293)"><path id="SvgjsPath2121" d="M 0 4Q 0 0 4 0L 134 0Q 138 0 138 4L 138 251Q 138 255 134 255L 4 255Q 0 255 0 251Z" stroke="#323232" stroke-width="2" fill-opacity="1" fill="#ffffff"></path><g id="SvgjsG2122"><text id="SvgjsText2123" font-family="微软雅黑" text-anchor="middle" font-size="13px" width="52" fill="#323232" font-weight="400" align="middle" anchor="middle" family="微软雅黑" size="13px" weight="400" font-style="" y="9.264285714285712" transform="rotate(0)"><tspan id="SvgjsTspan2124" dy="16" x="69"><tspan id="SvgjsTspan2125" style="text-decoration:;">报告列表</tspan></tspan></text></g></g><g id="SvgjsG2126" transform="translate(25,25)"><path id="SvgjsPath2127" d="M 0 0L 137 0L 137 531L 0 531Z" stroke="#323232" stroke-width="2" fill="none"></path><path id="SvgjsPath2128" d="M 0 0L 137 0L 137 40L 0 40Z" stroke="#323232" stroke-width="2" fill-opacity="1" fill="#ffffff"></path><g id="SvgjsG2129"><text id="SvgjsText2130" font-family="微软雅黑" text-anchor="middle" font-size="16px" width="32" fill="#323232" font-weight="400" align="middle" anchor="middle" family="微软雅黑" size="16px" weight="400" font-style="" y="7.6" transform="rotate(0)"><tspan id="SvgjsTspan2131" dy="20" x="68.5"><tspan id="SvgjsTspan2132" style="text-decoration:;">用户</tspan></tspan></text></g></g><g id="SvgjsG2133" transform="translate(74,97)"><path id="SvgjsPath2134" d="M 14 7.125C 14 -2.375 28 -2.375 28 7.125C 28 16.625 14 16.625 14 7.125M 21 14.25L 21 42.75M 21 42.75L 3.5 57M 21 42.75L 38.5 57M 0 28.5L 42 28.5" stroke="#323232" stroke-width="2" fill-opacity="1" fill="#ffffff"></path><path id="SvgjsPath2135" d="M 0 0L 42 0L 42 57L 0 57Z" stroke="none" fill="none"></path><g id="SvgjsG2136"><text id="SvgjsText2137" font-family="微软雅黑" text-anchor="middle" font-size="13px" width="39" fill="#323232" font-weight="400" align="middle" anchor="middle" family="微软雅黑" size="13px" weight="400" font-style="" y="62.05" transform="rotate(0)"><tspan id="SvgjsTspan2138" dy="16" x="21"><tspan id="SvgjsTspan2139" style="text-decoration:;">操作者</tspan></tspan></text></g></g><g id="SvgjsG2140"><path id="SvgjsPath2141" d="M116 125.5L277.5 125.5L277.5 125.5L439 125.5" stroke="#323232" stroke-width="2" fill="none" marker-end="url(#SvgjsMarker2142)"></path></g><g id="SvgjsG2144" transform="translate(439,90.5)"><path id="SvgjsPath2145" d="M 0 0L 100 0L 100 70L 0 70Z" stroke="#323232" stroke-width="2" fill-opacity="1" fill="#ffffff"></path><g id="SvgjsG2146"><text id="SvgjsText2147" font-family="微软雅黑" text-anchor="middle" font-size="13px" width="52" fill="#323232" font-weight="400" align="middle" anchor="middle" family="微软雅黑" size="13px" weight="400" font-style="" y="25.05" transform="rotate(0)"><tspan id="SvgjsTspan2148" dy="16" x="50"><tspan id="SvgjsTspan2149" style="text-decoration:;">提交界面</tspan></tspan></text></g></g><g id="SvgjsG2150"><path id="SvgjsPath2151" d="M539 125.5L606 125.5L606 125.5L673 125.5" stroke="#323232" stroke-width="2" fill="none" marker-end="url(#SvgjsMarker2152)"></path></g><g id="SvgjsG2154" transform="translate(673,90.5)"><path id="SvgjsPath2155" d="M 0 0L 100 0L 100 70L 0 70Z" stroke="#323232" stroke-width="2" fill-opacity="1" fill="#ffffff"></path><g id="SvgjsG2156"><text id="SvgjsText2157" font-family="微软雅黑" text-anchor="middle" font-size="13px" width="52" fill="#323232" font-weight="400" align="middle" anchor="middle" family="微软雅黑" size="13px" weight="400" font-style="" y="25.05" transform="rotate(0)"><tspan id="SvgjsTspan2158" dy="16" x="50"><tspan id="SvgjsTspan2159" style="text-decoration:;">数据验证</tspan></tspan></text></g></g><g id="SvgjsG2160"><path id="SvgjsPath2161" d="M723 160.5L723 178.75L723 178.75L723 197" stroke="#323232" stroke-width="2" fill="none" marker-end="url(#SvgjsMarker2162)"></path></g><g id="SvgjsG2164" transform="translate(678,197)"><path id="SvgjsPath2165" d="M 0 35L 45 0L 90 35L 45 70L 0 35Z" stroke="#323232" stroke-width="2" fill-opacity="1" fill="#ffffff"></path><g id="SvgjsG2166"><text id="SvgjsText2167" font-family="微软雅黑" text-anchor="middle" font-size="13px" width="65" fill="#323232" font-weight="400" align="middle" anchor="middle" family="微软雅黑" size="13px" weight="400" font-style="" y="25.05" transform="rotate(0)"><tspan id="SvgjsTspan2168" dy="16" x="45"><tspan id="SvgjsTspan2169" style="text-decoration:;">是否通过？</tspan></tspan></text></g></g><g id="SvgjsG2170"><path id="SvgjsPath2171" d="M723 267L723 299.5L723 299.5L723 332" stroke="#323232" stroke-width="2" fill="none" marker-end="url(#SvgjsMarker2172)"></path><rect id="SvgjsRect2174" width="13" height="16" x="716.5" y="282" fill="#ffffff"></rect><text id="SvgjsText2175" font-family="微软雅黑" text-anchor="middle" font-size="13px" width="13" fill="#323232" font-weight="400" align="top" anchor="middle" family="微软雅黑" size="13px" weight="400" font-style="" y="280.05" transform="rotate(0)"><tspan id="SvgjsTspan2176" dy="16" x="723"><tspan id="SvgjsTspan2177" style="text-decoration:;">是</tspan></tspan></text></g><g id="SvgjsG2178"><path id="SvgjsPath2179" d="M678 232L608.5 232L608.5 232L539 232" stroke="#323232" stroke-width="2" fill="none" marker-end="url(#SvgjsMarker2180)"></path><rect id="SvgjsRect2182" width="13" height="16" x="647.65" y="224" fill="#ffffff"></rect><text id="SvgjsText2183" font-family="微软雅黑" text-anchor="middle" font-size="13px" width="13" fill="#323232" font-weight="400" align="top" anchor="middle" family="微软雅黑" size="13px" weight="400" font-style="" y="222.05" transform="rotate(0)"><tspan id="SvgjsTspan2184" dy="16" x="654.15"><tspan id="SvgjsTspan2185" style="text-decoration:;">否</tspan></tspan></text></g><g id="SvgjsG2186" transform="translate(439,197)"><path id="SvgjsPath2187" d="M 0 0L 100 0L 100 70L 0 70Z" stroke="#323232" stroke-width="2" fill-opacity="1" fill="#ffffff"></path><g id="SvgjsG2188"><text id="SvgjsText2189" font-family="微软雅黑" text-anchor="middle" font-size="13px" width="52" fill="#323232" font-weight="400" align="middle" anchor="middle" family="微软雅黑" size="13px" weight="400" font-style="" y="25.05" transform="rotate(0)"><tspan id="SvgjsTspan2190" dy="16" x="50"><tspan id="SvgjsTspan2191" style="text-decoration:;">提示信息</tspan></tspan></text></g></g><g id="SvgjsG2192" transform="translate(673,332)"><path id="SvgjsPath2193" d="M 0 0L 100 0L 100 70L 0 70Z" stroke="#323232" stroke-width="2" fill-opacity="1" fill="#ffffff"></path><g id="SvgjsG2194"><text id="SvgjsText2195" font-family="微软雅黑" text-anchor="middle" font-size="13px" width="65" fill="#323232" font-weight="400" align="middle" anchor="middle" family="微软雅黑" size="13px" weight="400" font-style="" y="17.05" transform="rotate(0)"><tspan id="SvgjsTspan2196" dy="16" x="50"><tspan id="SvgjsTspan2197" style="text-decoration:;">新建</tspan></tspan><tspan id="SvgjsTspan2198" dy="16" x="50"><tspan id="SvgjsTspan2199" style="text-decoration:;">待审核报告</tspan></tspan></text></g></g><g id="SvgjsG2200" transform="translate(70,401.5)"><path id="SvgjsPath2201" d="M 14 7.125C 14 -2.375 28 -2.375 28 7.125C 28 16.625 14 16.625 14 7.125M 21 14.25L 21 42.75M 21 42.75L 3.5 57M 21 42.75L 38.5 57M 0 28.5L 42 28.5" stroke="#323232" stroke-width="2" fill-opacity="1" fill="#ffffff"></path><path id="SvgjsPath2202" d="M 0 0L 42 0L 42 57L 0 57Z" stroke="none" fill="none"></path><g id="SvgjsG2203"><text id="SvgjsText2204" font-family="微软雅黑" text-anchor="middle" font-size="13px" width="39" fill="#323232" font-weight="400" align="middle" anchor="middle" family="微软雅黑" size="13px" weight="400" font-style="" y="62.05" transform="rotate(0)"><tspan id="SvgjsTspan2205" dy="16" x="21"><tspan id="SvgjsTspan2206" style="text-decoration:;">审核者</tspan></tspan></text></g></g><g id="SvgjsG2207" transform="translate(439,325)"><path id="SvgjsPath2208" d="M 0 0L 100 0L 100 70L 0 70Z" stroke="#323232" stroke-width="2" fill-opacity="1" fill="#ffffff"></path><g id="SvgjsG2209"><text id="SvgjsText2210" font-family="微软雅黑" text-anchor="middle" font-size="13px" width="65" fill="#323232" font-weight="400" align="middle" anchor="middle" family="微软雅黑" size="13px" weight="400" font-style="" y="25.05" transform="rotate(0)"><tspan id="SvgjsTspan2211" dy="16" x="50"><tspan id="SvgjsTspan2212" style="text-decoration:;">待审核报告</tspan></tspan></text></g></g><g id="SvgjsG2213" transform="translate(439,460)"><path id="SvgjsPath2214" d="M 0 0L 100 0L 100 70L 0 70Z" stroke="#323232" stroke-width="2" fill-opacity="1" fill="#ffffff"></path><g id="SvgjsG2215"><text id="SvgjsText2216" font-family="微软雅黑" text-anchor="middle" font-size="13px" width="65" fill="#323232" font-weight="400" align="middle" anchor="middle" family="微软雅黑" size="13px" weight="400" font-style="" y="25.05" transform="rotate(0)"><tspan id="SvgjsTspan2217" dy="16" x="50"><tspan id="SvgjsTspan2218" style="text-decoration:;">已审核报告</tspan></tspan></text></g></g><g id="SvgjsG2219"><path id="SvgjsPath2220" d="M112 430L158 430L158 430L204 430" stroke="#323232" stroke-width="2" fill="none" marker-end="url(#SvgjsMarker2221)"></path></g><g id="SvgjsG2223" transform="translate(204,395)"><path id="SvgjsPath2224" d="M 0 0L 100 0L 100 70L 0 70Z" stroke="#323232" stroke-width="2" fill-opacity="1" fill="#ffffff"></path><g id="SvgjsG2225"><text id="SvgjsText2226" font-family="微软雅黑" text-anchor="middle" font-size="13px" width="26" fill="#323232" font-weight="400" align="middle" anchor="middle" family="微软雅黑" size="13px" weight="400" font-style="" y="25.05" transform="rotate(0)"><tspan id="SvgjsTspan2227" dy="16" x="50"><tspan id="SvgjsTspan2228" style="text-decoration:;">登录</tspan></tspan></text></g></g><g id="SvgjsG2229"><path id="SvgjsPath2230" d="M723 402L723 431L723 431L723 460" stroke="#323232" stroke-width="2" fill="none" marker-end="url(#SvgjsMarker2231)"></path><rect id="SvgjsRect2233" width="52" height="16" x="697" y="415" fill="#ffffff"></rect><text id="SvgjsText2234" font-family="微软雅黑" text-anchor="middle" font-size="13px" width="52" fill="#323232" font-weight="400" align="top" anchor="middle" family="微软雅黑" size="13px" weight="400" font-style="" y="413.05" transform="rotate(0)"><tspan id="SvgjsTspan2235" dy="16" x="723"><tspan id="SvgjsTspan2236" style="text-decoration:;">单击生成</tspan></tspan></text></g><g id="SvgjsG2237" transform="translate(673,460)"><path id="SvgjsPath2238" d="M 0 0L 100 0L 100 70L 0 70L 0 0ZM 16.666666666666668 0L 16.666666666666668 70M 0 14L 100 14" stroke="#323232" stroke-width="2" fill-opacity="1" fill="#ffffff"></path><g id="SvgjsG2239"><text id="SvgjsText2240" font-family="微软雅黑" text-anchor="middle" font-size="13px" width="39" fill="#323232" font-weight="400" align="middle" anchor="middle" family="微软雅黑" size="13px" weight="400" font-style="" y="32.05" transform="rotate(0)"><tspan id="SvgjsTspan2241" dy="16" x="58.66666666666667"><tspan id="SvgjsTspan2242" style="text-decoration:;">数据库</tspan></tspan></text></g></g><g id="SvgjsG2243"><path id="SvgjsPath2244" d="M116 125.5L439 343" stroke="#323232" stroke-width="2" fill="none" marker-end="url(#SvgjsMarker2245)"></path><rect id="SvgjsRect2247" width="26" height="48" x="322.95" y="242.875" fill="#ffffff"></rect><text id="SvgjsText2248" font-family="微软雅黑" text-anchor="middle" font-size="13px" width="26" fill="#323232" font-weight="400" align="top" anchor="middle" family="微软雅黑" size="13px" weight="400" font-style="" y="240.925" transform="rotate(0)"><tspan id="SvgjsTspan2249" dy="16" x="335.95"><tspan id="SvgjsTspan2250" style="text-decoration:;">编辑</tspan></tspan><tspan id="SvgjsTspan2251" dy="16" x="335.95"><tspan id="SvgjsTspan2252" style="text-decoration:;">预览</tspan></tspan><tspan id="SvgjsTspan2253" dy="16" x="335.95"><tspan id="SvgjsTspan2254" style="text-decoration:;">删除</tspan></tspan></text></g><g id="SvgjsG2255" transform="translate(779,81)"><path id="SvgjsPath2256" d="M 20 0L 0 0L 0 89L 20 89" stroke="#323232" stroke-width="2" fill="none"></path><path id="SvgjsPath2257" d="M 0 0L 223 0L 223 89L 0 89Z" stroke="none" fill="none"></path><g id="SvgjsG2258"><text id="SvgjsText2259" font-family="微软雅黑" text-anchor="start" font-size="13px" width="125" fill="#323232" font-weight="400" align="middle" anchor="start" family="微软雅黑" size="13px" weight="400" font-style="" y="2.55" transform="rotate(0)"><tspan id="SvgjsTspan2260" dy="16" x="10"><tspan id="SvgjsTspan2261" style="text-decoration:;">数据要求：</tspan></tspan><tspan id="SvgjsTspan2262" dy="16" x="10"><tspan id="SvgjsTspan2263" style="text-decoration:;">1.数据量≥20</tspan></tspan><tspan id="SvgjsTspan2264" dy="16" x="10"><tspan id="SvgjsTspan2265" style="text-decoration:;">2.无离群值</tspan></tspan><tspan id="SvgjsTspan2266" dy="16" x="10"><tspan id="SvgjsTspan2267" style="text-decoration:;">3.P值&gt;0.10</tspan></tspan><tspan id="SvgjsTspan2268" dy="16" x="10"><tspan id="SvgjsTspan2269" style="text-decoration:;">4.最大SE/Xc&lt;1/2ALE</tspan></tspan></text></g></g><g id="SvgjsG2270" transform="translate(779,214)"><path id="SvgjsPath2271" d="M 0 0L 100 0L 100 70L 0 70Z" stroke="#323232" stroke-width="2" fill-opacity="1" fill="#ffffff"></path><g id="SvgjsG2272"><text id="SvgjsText2273" font-family="微软雅黑" text-anchor="middle" font-size="13px" width="61" fill="#323232" font-weight="400" align="middle" anchor="middle" family="微软雅黑" size="13px" weight="400" font-style="" y="25.05" transform="rotate(0)"><tspan id="SvgjsTspan2274" dy="16" x="50"><tspan id="SvgjsTspan2275" style="text-decoration:;">R语言模块</tspan></tspan></text></g></g><g id="SvgjsG2276"><path id="SvgjsPath2277" d="M829 214L723 160.5" stroke="#323232" stroke-width="2" fill="none" marker-end="url(#SvgjsMarker2278)"></path></g><g id="SvgjsG2280"><path id="SvgjsPath2281" d="M829 284L773 367" stroke="#323232" stroke-width="2" fill="none" marker-end="url(#SvgjsMarker2282)"></path></g><g id="SvgjsG2284"><path id="SvgjsPath2285" d="M673 495L615.5 495L615.5 495L558 495" stroke="#323232" stroke-width="2" fill="none" marker-end="url(#SvgjsMarker2286)"></path></g><g id="SvgjsG2288"><path id="SvgjsPath2289" d="M489 395L489 427.5L489 427.5L489 460" stroke="#323232" stroke-width="2" fill="none" marker-end="url(#SvgjsMarker2290)"></path><rect id="SvgjsRect2292" width="39" height="16" x="469.5" y="411" fill="#ffffff"></rect><text id="SvgjsText2293" font-family="微软雅黑" text-anchor="middle" font-size="13px" width="39" fill="#323232" font-weight="400" align="top" anchor="middle" family="微软雅黑" size="13px" weight="400" font-style="" y="409.05" transform="rotate(0)"><tspan id="SvgjsTspan2294" dy="16" x="489"><tspan id="SvgjsTspan2295" style="text-decoration:;">审核后</tspan></tspan></text></g><g id="SvgjsG2296"><path id="SvgjsPath2297" d="M304 430L335.5 430L335.5 360L439 360" stroke="#323232" stroke-width="2" fill="none" marker-end="url(#SvgjsMarker2298)"></path><rect id="SvgjsRect2300" width="26" height="64" x="322.5" y="342" fill="#ffffff"></rect><text id="SvgjsText2301" font-family="微软雅黑" text-anchor="middle" font-size="13px" width="26" fill="#323232" font-weight="400" align="top" anchor="middle" family="微软雅黑" size="13px" weight="400" font-style="" y="340.05" transform="rotate(0)"><tspan id="SvgjsTspan2302" dy="16" x="335.5"><tspan id="SvgjsTspan2303" style="text-decoration:;">编辑</tspan></tspan><tspan id="SvgjsTspan2304" dy="16" x="335.5"><tspan id="SvgjsTspan2305" style="text-decoration:;">审核</tspan></tspan><tspan id="SvgjsTspan2306" dy="16" x="335.5"><tspan id="SvgjsTspan2307" style="text-decoration:;">预览</tspan></tspan><tspan id="SvgjsTspan2308" dy="16" x="335.5"><tspan id="SvgjsTspan2309" style="text-decoration:;">删除</tspan></tspan></text></g><g id="SvgjsG2310"><path id="SvgjsPath2311" d="M304 430L335.5 430L335.5 495L439 495" stroke="#323232" stroke-width="2" fill="none" marker-end="url(#SvgjsMarker2312)"></path><rect id="SvgjsRect2314" width="26" height="32" x="322.5" y="449.75" fill="#ffffff"></rect><text id="SvgjsText2315" font-family="微软雅黑" text-anchor="middle" font-size="13px" width="26" fill="#323232" font-weight="400" align="top" anchor="middle" family="微软雅黑" size="13px" weight="400" font-style="" y="447.8" transform="rotate(0)"><tspan id="SvgjsTspan2316" dy="16" x="335.5"><tspan id="SvgjsTspan2317" style="text-decoration:;">预览</tspan></tspan><tspan id="SvgjsTspan2318" dy="16" x="335.5"><tspan id="SvgjsTspan2319" style="text-decoration:;">删除</tspan></tspan></text></g></svg>